<mxfile host="app.diagrams.net" modified="2023-07-12T11:26:36.403Z" agent="Mozilla/5.0 (Macintosh; Intel Mac OS X 10_15_7) AppleWebKit/537.36 (KHTML, like Gecko) Chrome/114.0.0.0 Safari/537.36" version="21.5.2" etag="CgGeF3MJj5bi_sJdI_yg" type="github">
  <diagram name="Page-1" id="gCFBRIp6WHzzj1wFb2W6">
    <mxGraphModel>
      <root>
        <mxCell id="0" />
        <mxCell id="1" parent="0" />
      </root>
    </mxGraphModel>
  </diagram>
</mxfile>
